<svg version="1.1" id="Layer_1" xmlns="http://www.w3.org/2000/svg" xmlns:xlink="http://www.w3.org/1999/xlink" x="0px" y="0px"
	 width="100%" viewBox="0 0 500 500" enable-background="new 0 0 500 500" xml:space="preserve">
<path fill="#000000" opacity="1.000000" stroke="none" 
	d="
M272.000000,501.000000 
	C181.333359,501.000000 91.166710,501.000000 1.000048,501.000000 
	C1.000032,334.333405 1.000032,167.666794 1.000016,1.000138 
	C167.666565,1.000092 334.333130,1.000092 500.999756,1.000046 
	C500.999847,167.666519 500.999847,334.333038 500.999939,500.999786 
	C424.833344,501.000000 348.666656,501.000000 272.000000,501.000000 
M120.569504,265.942169 
	C120.662010,265.635315 120.754517,265.328430 121.031799,264.536194 
	C121.312279,264.372284 121.592766,264.208374 121.994995,264.876007 
	C122.738304,268.467773 123.193268,272.162842 124.418320,275.582001 
	C124.743271,276.488953 127.964142,277.417419 128.937790,276.825806 
	C131.434479,275.308838 133.823914,273.219513 135.450272,270.814087 
	C136.429123,269.366302 135.898788,266.898102 136.011292,264.029663 
	C135.717133,262.452728 135.476410,260.863556 135.119354,259.300995 
	C133.749802,253.307617 134.930389,251.858505 140.821472,250.933670 
	C146.515610,250.039764 152.123718,248.597809 157.872787,247.374634 
	C159.083969,252.425354 160.068497,258.922028 166.153000,263.694611 
	C167.680527,264.871735 169.123276,266.184448 170.750473,267.202179 
	C177.294327,271.295105 183.221146,275.913422 192.204895,274.238464 
	C203.954788,272.047760 208.986908,268.299438 212.136459,255.348877 
	C212.919205,254.293869 213.701935,253.238861 215.227219,251.182999 
	C215.597031,256.304291 215.875076,260.154724 216.008896,264.794830 
	C217.112671,268.124969 217.881424,271.620056 219.416748,274.737671 
	C220.880051,277.709045 223.823578,277.565582 224.976974,274.446686 
	C226.332550,270.781067 226.920822,266.831726 227.994980,262.120331 
	C227.994980,259.498322 227.994980,256.876343 227.994980,254.254333 
	C228.436111,253.916336 228.877258,253.578339 229.318390,253.240341 
	C233.463913,257.280853 237.992767,261.007690 241.635544,265.459595 
	C244.633255,269.123108 247.431641,273.393127 248.760437,277.858002 
	C250.178711,282.623535 249.769043,287.933105 250.009323,293.875854 
	C250.660202,297.160797 250.840652,300.640625 252.097458,303.674561 
	C253.296219,306.568390 255.663315,306.417603 257.069000,303.501129 
	C257.735840,302.117645 257.949310,300.404175 257.964081,298.836365 
	C258.045563,290.183197 257.842651,281.524139 258.098511,272.877808 
	C258.176086,270.256226 259.403931,267.668671 260.021973,265.026123 
	C260.021973,265.026123 260.060608,265.109436 260.567657,264.940826 
	C260.658203,264.635223 260.748749,264.329590 260.991974,263.227081 
	C260.099152,261.091827 259.716492,258.468292 258.223022,256.907867 
	C252.501907,250.930069 246.423950,245.293777 240.545486,239.594315 
	C249.038803,228.922287 245.963257,215.945084 232.768280,213.973953 
	C228.753433,213.374207 224.622299,213.547211 220.610596,212.933624 
	C212.636032,211.713898 211.792679,215.152817 210.997253,221.049637 
	C210.885574,221.877518 210.981812,222.733459 210.981812,224.391296 
	C207.131485,218.070221 200.307083,215.616577 198.291687,208.995361 
	C197.988937,208.000778 195.513428,207.019913 194.119614,207.118256 
	C188.379852,207.523224 182.649246,208.027740 177.703827,211.708145 
	C174.902527,213.792862 171.405487,214.955307 168.654114,217.090271 
	C166.719284,218.591629 165.282822,220.901718 164.046646,223.089584 
	C162.839432,225.226212 162.168762,227.665985 161.014084,230.605133 
	C155.635895,218.950836 147.880432,212.721436 136.097092,211.955383 
	C134.867981,211.875488 133.626129,211.318146 132.477295,210.792068 
	C127.120476,208.339111 122.833153,210.914032 122.196732,216.624252 
	C121.354202,224.183701 121.947510,231.908386 122.024811,239.561050 
	C122.041733,241.236862 122.484596,242.908356 122.731293,244.581848 
	C122.181244,244.789505 121.631195,244.997162 121.081139,245.204819 
	C119.422256,242.713821 116.479454,240.267456 116.390945,237.721878 
	C116.240105,233.383194 118.030334,229.005432 118.723145,224.599762 
	C119.250603,221.245544 119.923470,217.706238 116.932327,214.445511 
	C116.636108,214.250320 116.339882,214.055130 115.849037,213.284958 
	C114.942963,212.508347 114.036880,211.731735 112.944626,210.447098 
	C112.647552,210.258896 112.350487,210.070694 112.021820,209.963562 
	C112.021820,209.963562 112.103569,209.933777 111.833450,209.289368 
	C109.890732,208.249664 107.948013,207.209946 105.248924,206.022232 
	C103.832581,206.403763 102.416245,206.785294 100.322952,207.150375 
	C98.503090,209.416550 96.683235,211.682724 94.397331,214.067032 
	C94.095367,214.253220 93.947418,214.523651 93.275848,215.204636 
	C87.312805,226.368896 89.459145,236.569077 97.167328,246.732132 
	C97.408737,247.472595 97.650146,248.213058 97.136429,249.008789 
	C91.906380,250.907196 90.958336,252.897614 92.953415,257.635651 
	C93.819176,259.691711 94.644852,261.768555 95.387596,263.871704 
	C97.434975,269.669128 102.817017,274.040283 102.535744,280.917664 
	C102.499336,281.808014 105.094414,283.785187 105.601616,283.530212 
	C106.978523,282.838135 108.900520,281.128540 108.799988,279.980530 
	C108.453918,276.028778 110.958420,274.571472 113.591248,272.839783 
	C115.316307,271.705170 116.807053,270.214294 118.731140,268.722687 
	C118.731140,268.722687 118.887077,268.392181 119.361816,268.078949 
	C119.610893,267.406982 119.859970,266.735016 120.026688,266.028534 
	C120.026688,266.028534 120.060883,266.111023 120.569504,265.942169 
M302.022125,216.978607 
	C302.022125,216.978607 302.103699,216.938919 302.006622,216.182327 
	C301.658356,212.131012 298.869934,211.485062 295.626251,211.830887 
	C293.397217,212.068527 291.210510,212.702988 288.260925,213.001465 
	C287.505768,213.053177 286.750580,213.104889 285.239960,213.010132 
	C283.828461,213.392822 282.416931,213.775528 280.107513,214.000992 
	C276.243286,214.334381 272.361053,214.529083 268.518494,215.029037 
	C259.596649,216.189835 254.811661,218.288345 259.903503,229.549438 
	C260.099915,229.983734 260.076599,230.517365 260.010956,231.878723 
	C260.335480,234.573410 260.335602,237.371826 261.147278,239.910767 
	C261.463348,240.899460 263.618378,241.802505 264.916107,241.776199 
	C265.630341,241.761703 266.662445,239.813461 266.923431,238.601837 
	C267.528412,235.793365 267.751740,232.902695 268.783600,229.780807 
	C270.295380,228.747604 271.807190,227.714401 274.168579,226.100571 
	C275.571564,233.371613 276.847504,239.639999 277.977051,245.934662 
	C279.115326,252.277771 280.108154,258.646973 281.014709,265.629395 
	C281.370361,266.523529 281.726013,267.417633 282.018738,268.955292 
	C282.088898,269.159088 282.159088,269.362885 282.680573,270.101501 
	C286.925446,273.598389 291.303162,272.811157 292.377869,267.955292 
	C292.850647,265.819092 291.594360,263.300201 291.012573,260.076569 
	C289.316193,248.154617 287.619843,236.232681 285.925323,224.323792 
	C290.571228,223.948166 294.583191,223.623795 298.605469,223.298584 
	C298.688660,224.382004 298.638611,225.530838 298.881561,226.613968 
	C301.092957,236.472183 303.351440,246.319855 305.604645,256.168671 
	C306.709106,260.996277 307.481689,265.938568 309.066620,270.604034 
	C310.153687,273.804108 314.339203,274.318726 315.843872,271.397247 
	C317.305634,268.559113 318.092804,264.878601 317.768616,261.712097 
	C316.931335,253.534607 315.302490,245.438965 314.018250,237.306137 
	C313.265167,232.537094 312.566498,227.759476 311.930084,222.447128 
	C311.633148,222.255783 311.336243,222.064438 310.995392,221.421371 
	C310.995392,221.421371 310.838196,220.995605 310.801086,220.278000 
	C307.887573,219.150803 304.974030,218.023605 302.022125,216.978607 
M391.693451,229.850220 
	C393.704590,227.785126 395.715729,225.720032 398.449493,223.021088 
	C398.625793,222.753540 398.802063,222.485992 399.437500,222.025558 
	C400.492340,221.316391 401.731934,220.777359 402.569244,219.867920 
	C405.784119,216.376144 409.338470,213.050247 411.766022,209.054779 
	C412.695679,207.524734 411.560638,203.867493 410.173676,202.133743 
	C409.357086,201.112976 405.651672,201.159714 404.207275,202.141434 
	C401.123627,204.237259 398.665924,207.254059 395.312988,210.163177 
	C392.195435,213.737137 389.077881,217.311096 385.367737,220.994812 
	C384.536377,220.522125 383.705048,220.049454 382.714539,219.275589 
	C382.714539,219.275589 382.410583,219.121765 382.060242,218.570633 
	C379.698730,214.980789 377.383331,211.359207 374.947021,207.820862 
	C374.236755,206.789322 373.214172,205.252579 372.279541,205.211777 
	C365.832397,204.930328 359.258759,202.200836 352.298218,205.975891 
	C351.863678,206.036057 351.429108,206.096222 350.246643,206.015381 
	C348.482483,206.635483 346.718292,207.255585 344.297363,207.982040 
	C343.860046,208.038513 343.422760,208.094986 342.445496,208.067657 
	C342.256714,208.366211 342.067932,208.664749 341.039368,208.995483 
	C339.050262,208.508377 337.060638,208.023285 335.072113,207.533722 
	C331.442444,206.640106 328.207184,206.346329 325.810181,210.332108 
	C324.702423,212.174149 322.592804,213.756409 320.579132,214.640045 
	C316.312744,216.512238 314.434052,220.027039 316.835144,224.161987 
	C318.365082,226.796722 321.029663,228.772598 323.980530,231.881516 
	C323.980530,242.258789 323.933624,254.076782 324.032837,265.893555 
	C324.047150,267.600464 324.763489,269.301483 325.171936,271.689484 
	C325.874756,272.392761 326.568176,273.105743 327.281921,273.797729 
	C331.827820,278.205170 335.593811,277.491943 336.632904,271.414825 
	C337.135925,268.473022 339.230591,264.398193 335.307007,261.150146 
	C335.220337,260.477509 335.133636,259.804901 335.645874,258.876373 
	C335.710541,258.260406 335.775208,257.644470 335.981598,256.504791 
	C335.932281,256.330811 335.882935,256.156799 335.983643,255.120422 
	C335.934296,253.082153 335.884979,251.043900 335.988922,248.217361 
	C335.412750,244.721649 337.897247,243.998978 340.417999,242.950348 
	C346.351471,240.481964 352.175140,237.749603 358.810699,235.007507 
	C361.148590,233.509277 363.735901,232.262131 365.661652,230.349045 
	C366.190704,229.823441 365.146240,226.328995 364.117218,225.902756 
	C361.843506,224.960938 358.956757,224.400116 356.614288,224.946106 
	C351.300049,226.184753 346.163513,228.185898 340.103516,229.982544 
	C339.070831,229.378494 337.076080,228.489456 337.157257,228.215363 
	C337.823914,225.964813 338.299042,222.668396 339.914948,221.863907 
	C346.041870,218.813507 352.496155,216.335098 359.014557,214.216812 
	C360.636627,213.689697 363.573090,214.743256 364.817627,216.081741 
	C366.807281,218.221558 367.843903,221.232635 369.362671,223.829041 
	C371.199249,226.968765 373.970093,229.839401 374.844635,233.213242 
	C377.653259,244.048157 379.774353,255.061264 382.017609,266.866913 
	C382.689056,270.960541 383.173828,275.099609 384.151123,279.118835 
	C384.427094,280.253967 386.045929,281.615845 387.228790,281.817383 
	C388.351624,282.008636 390.454224,281.123383 390.841309,280.182800 
	C392.986908,274.969299 394.254913,269.559875 392.015137,263.215363 
	C391.955750,262.475037 391.896332,261.734711 391.979553,260.266083 
	C391.627289,258.738098 391.275055,257.210083 390.961121,255.165039 
	C390.923187,254.484222 390.885254,253.803421 390.989807,252.400208 
	C388.665985,244.942688 387.925079,237.493912 391.027527,230.024200 
	C391.027527,230.024200 391.069763,230.110199 391.693451,229.850220 
M242.235657,316.997833 
	C236.602921,316.998138 230.970184,316.994629 225.337448,316.999664 
	C217.758896,317.006500 217.421036,317.494324 219.793976,324.820007 
	C228.610596,325.842285 237.393677,323.690125 246.208252,324.873169 
	C247.353638,325.026917 249.793472,323.500916 249.769363,322.818970 
	C249.711258,321.176361 248.913971,319.172455 247.716827,318.077057 
	C246.712250,317.157898 244.721405,317.316620 242.235657,316.997833 
M259.615662,325.000671 
	C267.246094,325.000671 274.876556,325.000671 282.435394,325.000671 
	C284.761597,317.756927 284.205170,317.000610 276.769318,316.997894 
	C271.453094,316.995941 266.136902,316.997375 260.820679,316.997681 
	C253.659760,316.998108 253.659760,316.998260 254.327133,324.999817 
	C255.739975,324.999817 257.193512,324.999817 259.615662,325.000671 
z"/>
<path fill="#F7F6F3" opacity="1.000000" stroke="none" 
	d="
M113.130806,210.955124 
	C114.036880,211.731735 114.942963,212.508347 116.018974,213.800354 
	C116.325363,214.620956 116.545074,214.844238 116.848038,214.985580 
	C119.923470,217.706238 119.250603,221.245544 118.723145,224.599762 
	C118.030334,229.005432 116.240105,233.383194 116.390945,237.721878 
	C116.479454,240.267456 119.422256,242.713821 121.081139,245.204819 
	C121.631195,244.997162 122.181244,244.789505 122.731293,244.581848 
	C122.484596,242.908356 122.041733,241.236862 122.024811,239.561050 
	C121.947510,231.908386 121.354202,224.183701 122.196732,216.624252 
	C122.833153,210.914032 127.120476,208.339111 132.477295,210.792068 
	C133.626129,211.318146 134.867981,211.875488 136.097092,211.955383 
	C147.880432,212.721436 155.635895,218.950836 161.014084,230.605133 
	C162.168762,227.665985 162.839432,225.226212 164.046646,223.089584 
	C165.282822,220.901718 166.719284,218.591629 168.654114,217.090271 
	C171.405487,214.955307 174.902527,213.792862 177.703827,211.708145 
	C182.649246,208.027740 188.379852,207.523224 194.119614,207.118256 
	C195.513428,207.019913 197.988937,208.000778 198.291687,208.995361 
	C200.307083,215.616577 207.131485,218.070221 210.981812,224.391296 
	C210.981812,222.733459 210.885574,221.877518 210.997253,221.049637 
	C211.792679,215.152817 212.636032,211.713898 220.610596,212.933624 
	C224.622299,213.547211 228.753433,213.374207 232.768280,213.973953 
	C245.963257,215.945084 249.038803,228.922287 240.545486,239.594315 
	C246.423950,245.293777 252.501907,250.930069 258.223022,256.907867 
	C259.716492,258.468292 260.099152,261.091827 260.723572,263.755066 
	C260.238617,264.517883 260.107117,264.793365 260.060608,265.109436 
	C260.060608,265.109436 260.021973,265.026123 259.669189,265.036560 
	C257.877930,267.840271 255.437653,270.550568 255.198288,273.443054 
	C254.599533,280.678375 255.022995,287.996521 254.971298,295.280945 
	C254.963806,296.338226 254.598892,297.393036 254.490936,297.964294 
	C252.902725,296.146820 251.530045,294.575989 250.157364,293.005157 
	C249.769043,287.933105 250.178711,282.623535 248.760437,277.858002 
	C247.431641,273.393127 244.633255,269.123108 241.635544,265.459595 
	C237.992767,261.007690 233.463913,257.280853 229.318390,253.240341 
	C228.877258,253.578339 228.436111,253.916336 227.994980,254.254333 
	C227.994980,256.876343 227.994980,259.498322 227.570923,262.632141 
	C225.548477,266.091797 223.950104,269.039612 222.284683,272.111023 
	C220.324905,269.520233 218.239014,266.762726 216.153107,264.005188 
	C215.875076,260.154724 215.597031,256.304291 215.227219,251.182999 
	C213.701935,253.238861 212.919205,254.293869 211.641159,255.724655 
	C210.264526,257.388519 209.241364,258.603027 208.527878,259.978180 
	C206.181458,264.500671 203.222397,268.289795 198.226151,270.178131 
	C190.117615,273.242798 182.745712,272.758484 175.513016,267.322113 
	C172.858688,265.327026 170.452316,261.283325 165.879257,263.045990 
	C160.068497,258.922028 159.083969,252.425354 157.872787,247.374634 
	C152.123718,248.597809 146.515610,250.039764 140.821472,250.933670 
	C134.930389,251.858505 133.749802,253.307617 135.119354,259.300995 
	C135.476410,260.863556 135.717133,262.452728 135.882172,264.772827 
	C133.279480,267.940704 131.581360,272.389343 127.440971,271.015930 
	C125.975624,270.529877 125.769516,266.261230 124.973244,263.724243 
	C124.890800,263.461578 124.703835,263.231750 124.591652,263.033203 
	C123.661270,263.379303 122.767258,263.711884 121.873245,264.044464 
	C121.592766,264.208374 121.312279,264.372284 120.745544,264.908203 
	C120.241356,265.516327 120.108551,265.793274 120.060883,266.111023 
	C120.060883,266.111023 120.026688,266.028534 119.706009,266.089996 
	C119.219246,266.898376 119.053162,267.645264 118.887085,268.392181 
	C118.887077,268.392181 118.731140,268.722687 118.244614,268.594452 
	C113.379250,271.361450 109.000404,274.256653 104.916100,276.957123 
	C103.623833,274.527863 101.738182,271.292175 100.150940,267.916168 
	C98.416145,264.226349 96.776413,260.469788 95.435791,256.623657 
	C94.369751,253.565292 94.715965,250.905533 99.054733,251.136642 
	C99.193497,251.323822 99.278412,251.373138 99.363327,251.422470 
	C99.241814,251.281921 99.120300,251.141373 98.972343,250.690613 
	C98.594452,249.904770 98.243004,249.429138 97.891556,248.953522 
	C97.650146,248.213058 97.408737,247.472595 97.073502,246.030121 
	C96.850594,244.356262 97.019203,243.198517 96.546371,242.441315 
	C91.810493,234.857056 92.188850,226.841339 94.200432,218.599991 
	C94.481567,217.448166 94.053352,216.123184 93.953499,214.878357 
	C93.947418,214.523651 94.095367,214.253220 95.032394,214.021729 
	C100.648270,214.215012 101.234322,211.012161 100.999901,207.166824 
	C102.416245,206.785294 103.832581,206.403763 105.636971,206.467072 
	C108.051201,207.919189 110.077385,208.926483 112.103569,209.933777 
	C112.103569,209.933777 112.021820,209.963562 112.144180,210.166489 
	C112.554634,210.564651 112.842720,210.759888 113.130806,210.955124 
M193.064789,230.032547 
	C191.966949,232.130371 190.869110,234.228195 189.771271,236.326019 
	C188.996674,233.938995 189.341446,231.494522 188.857880,229.226669 
	C188.598297,228.009232 186.915451,227.095291 185.162903,226.025208 
	C181.094711,229.728775 176.150986,232.840454 173.156403,237.269852 
	C168.240204,244.541595 173.813858,257.644653 182.765564,261.929626 
	C187.128586,264.018097 197.701309,261.547607 199.798981,257.341980 
	C204.354233,248.209137 205.911301,238.703384 200.977066,229.106689 
	C199.618164,226.463730 197.782486,224.179825 194.165634,225.313293 
	C194.047501,227.047699 193.946793,228.526535 193.064789,230.032547 
M144.364395,228.892365 
	C142.421341,228.264374 140.470566,227.137711 138.537689,227.167664 
	C137.017227,227.191208 134.219269,228.665314 134.233475,229.454651 
	C134.298538,233.062973 135.142227,236.659210 135.757278,240.251038 
	C135.795837,240.476242 136.308563,240.826111 136.534943,240.781815 
	C139.163651,240.267441 141.804260,239.782471 144.394073,239.107025 
	C149.993439,237.646652 150.755768,235.532379 147.367920,230.924591 
	C146.805481,230.159576 145.898849,229.647659 144.364395,228.892365 
M228.920715,231.983429 
	C230.742630,230.821091 232.564545,229.658752 234.386444,228.496414 
	C234.339172,227.880280 234.291901,227.264130 234.244629,226.647995 
	C231.378967,225.920074 228.513290,225.192154 225.647629,224.464233 
	C226.535416,227.449493 221.688690,231.951340 228.920715,231.983429 
M109.595291,254.972275 
	C107.492043,254.085861 105.388802,253.199448 101.920792,251.737854 
	C104.470100,256.100769 106.323662,259.272980 108.429489,262.876892 
	C111.540215,260.042908 114.017494,258.143005 109.595291,254.972275 
M105.030769,232.218597 
	C106.160622,233.454529 107.290474,234.690445 108.906410,236.458084 
	C109.147491,230.715820 108.793015,226.221985 105.138252,222.891235 
	C104.611763,223.001740 104.085274,223.112228 103.558784,223.222717 
	C104.023293,225.968292 104.487793,228.713852 105.030769,232.218597 
z"/>
<path fill="#F7F6F2" opacity="1.000000" stroke="none" 
	d="
M391.836945,260.994385 
	C391.896332,261.734711 391.955750,262.475037 391.668213,263.675781 
	C390.881134,266.933929 390.618927,269.776398 389.931061,272.511810 
	C389.546600,274.040558 388.455444,275.391602 387.682678,276.822723 
	C386.793701,275.425720 385.778290,274.091522 385.045715,272.616791 
	C383.977356,270.466095 383.112366,268.214325 382.160675,266.005646 
	C379.774353,255.061264 377.653259,244.048157 374.844635,233.213242 
	C373.970093,229.839401 371.199249,226.968765 369.362671,223.829041 
	C367.843903,221.232635 366.807281,218.221558 364.817627,216.081741 
	C363.573090,214.743256 360.636627,213.689697 359.014557,214.216812 
	C352.496155,216.335098 346.041870,218.813507 339.914948,221.863907 
	C338.299042,222.668396 337.823914,225.964813 337.157257,228.215363 
	C337.076080,228.489456 339.070831,229.378494 340.579773,230.260559 
	C341.348358,230.898697 341.750641,231.617264 341.916901,231.566284 
	C345.607208,230.434464 349.227875,229.050552 352.956390,228.076965 
	C355.362457,227.448700 357.920685,227.196014 360.408020,227.211395 
	C361.160339,227.216034 362.231689,228.576019 362.531006,229.514740 
	C362.717499,230.099686 361.833038,231.145767 361.248199,231.830231 
	C360.255157,232.992508 359.119171,234.032623 358.043274,235.124069 
	C352.175140,237.749603 346.351471,240.481964 340.417999,242.950348 
	C337.897247,243.998978 335.412750,244.721649 335.541168,248.621887 
	C331.132172,251.792923 333.182098,253.919876 335.833557,255.982834 
	C335.882935,256.156799 335.932281,256.330811 335.689209,256.963196 
	C335.280151,257.991852 335.163544,258.562042 335.046936,259.132263 
	C335.133636,259.804901 335.220337,260.477509 335.028442,261.867035 
	C334.158783,266.335510 333.567719,270.087128 333.030792,273.494904 
	C329.630005,272.419861 327.392487,271.712555 325.154968,271.005249 
	C324.763489,269.301483 324.047150,267.600464 324.032837,265.893555 
	C323.933624,254.076782 323.980530,242.258789 323.980530,231.881516 
	C321.029663,228.772598 318.365082,226.796722 316.835144,224.161987 
	C314.434052,220.027039 316.312744,216.512238 320.579132,214.640045 
	C322.592804,213.756409 324.702423,212.174149 325.810181,210.332108 
	C328.207184,206.346329 331.442444,206.640106 335.072113,207.533722 
	C337.060638,208.023285 339.050262,208.508377 341.683777,208.903442 
	C342.628754,208.672546 342.847839,208.452576 342.985443,208.151474 
	C343.422760,208.094986 343.860046,208.038513 344.683777,208.272690 
	C347.893707,209.850082 350.363342,210.265717 350.994568,206.156387 
	C351.429108,206.096222 351.863678,206.036057 352.671387,206.246628 
	C355.668762,206.522675 358.328918,206.254333 360.909119,206.593796 
	C365.412201,207.186218 370.398895,206.676041 373.772400,210.668945 
	C375.666321,212.910629 377.084625,215.557343 379.005432,217.771500 
	C379.715607,218.590164 381.251373,218.692642 382.410583,219.121765 
	C382.410583,219.121765 382.714539,219.275589 382.578430,219.775146 
	C382.789124,221.133438 383.135895,221.992172 383.482666,222.850891 
	C384.308563,222.195618 385.134430,221.540344 385.960327,220.885071 
	C389.077881,217.311096 392.195435,213.737137 395.820282,210.286407 
	C397.135986,210.099976 398.064911,209.950546 398.730133,209.450424 
	C400.691254,207.976074 402.387360,206.065536 404.508179,204.919937 
	C405.702728,204.274658 408.077820,204.203903 408.914795,204.971497 
	C409.713470,205.704025 409.805542,208.220734 409.147034,209.313736 
	C407.844177,211.476288 405.910187,213.303772 404.051147,215.074539 
	C401.731720,217.283875 399.224701,219.296234 395.999237,222.084732 
	C397.993652,222.174240 398.485992,222.196335 398.978363,222.218445 
	C398.802063,222.485992 398.625793,222.753540 397.710785,223.150696 
	C392.782288,223.636414 390.586670,225.715866 391.069763,230.110199 
	C391.069763,230.110199 391.027527,230.024200 390.706696,230.062225 
	C389.731049,230.537262 388.729950,230.828217 388.474548,231.433701 
	C385.678558,238.062378 387.213715,244.692215 388.775787,251.268143 
	C388.951660,252.008545 390.132477,252.510223 390.847290,253.122604 
	C390.885254,253.803421 390.923187,254.484222 390.578369,255.563110 
	C388.123138,258.493164 389.511597,259.896545 391.836945,260.994385 
z"/>
<path fill="#F8F7F4" opacity="1.000000" stroke="none" 
	d="
M281.164673,265.004730 
	C280.108154,258.646973 279.115326,252.277771 277.977051,245.934662 
	C276.847504,239.639999 275.571564,233.371613 274.168579,226.100571 
	C271.807190,227.714401 270.295380,228.747604 268.072021,229.941711 
	C266.110809,232.450790 264.861145,234.798981 263.600098,237.168594 
	C261.708191,235.523621 265.109772,230.912964 260.155640,231.004715 
	C260.076599,230.517365 260.099915,229.983734 259.903503,229.549438 
	C254.811661,218.288345 259.596649,216.189835 268.518494,215.029037 
	C272.361053,214.529083 276.243286,214.334381 280.618042,214.405289 
	C283.692444,217.030884 284.916718,215.308014 285.995422,213.156601 
	C286.750580,213.104889 287.505768,213.053177 288.701904,213.413818 
	C293.463165,214.863754 297.783447,215.901337 302.103699,216.938919 
	C302.103699,216.938919 302.022125,216.978607 302.035156,217.338959 
	C303.790833,221.964279 308.071106,219.462418 310.838196,220.995605 
	C310.838196,220.995605 310.995392,221.421371 311.090942,221.872650 
	C311.325348,222.624023 311.544312,222.844620 311.843384,222.985703 
	C312.566498,227.759476 313.265167,232.537094 314.018250,237.306137 
	C315.302490,245.438965 316.931335,253.534607 317.768616,261.712097 
	C318.092804,264.878601 317.305634,268.559113 315.843872,271.397247 
	C314.339203,274.318726 310.153687,273.804108 309.066620,270.604034 
	C307.481689,265.938568 306.709106,260.996277 305.604645,256.168671 
	C303.351440,246.319855 301.092957,236.472183 298.881561,226.613968 
	C298.638611,225.530838 298.688660,224.382004 298.605469,223.298584 
	C294.583191,223.623795 290.571228,223.948166 285.925323,224.323792 
	C287.619843,236.232681 289.316193,248.154617 290.718536,260.573425 
	C290.313110,262.254852 289.849854,263.540588 290.155975,264.605072 
	C291.088715,267.848358 289.407501,270.129517 286.047943,269.843964 
	C284.776367,269.735901 283.502228,269.658203 282.229248,269.566681 
	C282.159088,269.362885 282.088898,269.159088 282.387787,268.517761 
	C282.226105,267.055084 281.695404,266.029907 281.164673,265.004730 
M299.797699,220.393036 
	C299.793549,220.785690 299.789398,221.178360 299.785278,221.571014 
	C299.948242,221.572662 300.252899,221.585190 300.253754,221.574387 
	C300.283783,221.183487 300.285492,220.790421 299.797699,220.393036 
z"/>
<path fill="#FEFEFD" opacity="1.000000" stroke="none" 
	d="
M242.701447,316.997986 
	C244.721405,317.316620 246.712250,317.157898 247.716827,318.077057 
	C248.913971,319.172455 249.711258,321.176361 249.769363,322.818970 
	C249.793472,323.500916 247.353638,325.026917 246.208252,324.873169 
	C237.393677,323.690125 228.610596,325.842285 219.793976,324.820007 
	C217.421036,317.494324 217.758896,317.006500 225.337448,316.999664 
	C230.970184,316.994629 236.602921,316.998138 242.701447,316.997986 
z"/>
<path fill="#FEFEFD" opacity="1.000000" stroke="none" 
	d="
M259.131348,325.000244 
	C257.193512,324.999817 255.739975,324.999817 254.327133,324.999817 
	C253.659760,316.998260 253.659760,316.998108 260.820679,316.997681 
	C266.136902,316.997375 271.453094,316.995941 276.769318,316.997894 
	C284.205170,317.000610 284.761597,317.756927 282.435394,325.000671 
	C274.876556,325.000671 267.246094,325.000671 259.131348,325.000244 
z"/>
<path fill="#FDFDFB" opacity="1.000000" stroke="none" 
	d="
M250.083344,293.440491 
	C251.530045,294.575989 252.902725,296.146820 254.490936,297.964294 
	C254.598892,297.393036 254.963806,296.338226 254.971298,295.280945 
	C255.022995,287.996521 254.599533,280.678375 255.198288,273.443054 
	C255.437653,270.550568 257.877930,267.840271 259.710632,265.056274 
	C259.403931,267.668671 258.176086,270.256226 258.098511,272.877808 
	C257.842651,281.524139 258.045563,290.183197 257.964081,298.836365 
	C257.949310,300.404175 257.735840,302.117645 257.069000,303.501129 
	C255.663315,306.417603 253.296219,306.568390 252.097458,303.674561 
	C250.840652,300.640625 250.660202,297.160797 250.083344,293.440491 
z"/>
<path fill="#FDFDFB" opacity="1.000000" stroke="none" 
	d="
M97.513992,248.981155 
	C98.243004,249.429138 98.594452,249.904770 98.972946,250.690186 
	C99.000000,251.000000 99.000877,250.998779 99.000877,250.998779 
	C94.715965,250.905533 94.369751,253.565292 95.435791,256.623657 
	C96.776413,260.469788 98.416145,264.226349 100.150940,267.916168 
	C101.738182,271.292175 103.623833,274.527863 104.916100,276.957123 
	C109.000404,274.256653 113.379250,271.361450 118.080414,268.674591 
	C116.807053,270.214294 115.316307,271.705170 113.591248,272.839783 
	C110.958420,274.571472 108.453918,276.028778 108.799988,279.980530 
	C108.900520,281.128540 106.978523,282.838135 105.601616,283.530212 
	C105.094414,283.785187 102.499336,281.808014 102.535744,280.917664 
	C102.817017,274.040283 97.434975,269.669128 95.387596,263.871704 
	C94.644852,261.768555 93.819176,259.691711 92.953415,257.635651 
	C90.958336,252.897614 91.906380,250.907196 97.513992,248.981155 
z"/>
<path fill="#FDFDFB" opacity="1.000000" stroke="none" 
	d="
M166.016129,263.370300 
	C170.452316,261.283325 172.858688,265.327026 175.513016,267.322113 
	C182.745712,272.758484 190.117615,273.242798 198.226151,270.178131 
	C203.222397,268.289795 206.181458,264.500671 208.527878,259.978180 
	C209.241364,258.603027 210.264526,257.388519 211.494415,256.052856 
	C208.986908,268.299438 203.954788,272.047760 192.204895,274.238464 
	C183.221146,275.913422 177.294327,271.295105 170.750473,267.202179 
	C169.123276,266.184448 167.680527,264.871735 166.016129,263.370300 
z"/>
<path fill="#FDFDFB" opacity="1.000000" stroke="none" 
	d="
M399.207947,222.121994 
	C398.485992,222.196335 397.993652,222.174240 395.999237,222.084732 
	C399.224701,219.296234 401.731720,217.283875 404.051147,215.074539 
	C405.910187,213.303772 407.844177,211.476288 409.147034,209.313736 
	C409.805542,208.220734 409.713470,205.704025 408.914795,204.971497 
	C408.077820,204.203903 405.702728,204.274658 404.508179,204.919937 
	C402.387360,206.065536 400.691254,207.976074 398.730133,209.450424 
	C398.064911,209.950546 397.135986,210.099976 396.139648,210.151596 
	C398.665924,207.254059 401.123627,204.237259 404.207275,202.141434 
	C405.651672,201.159714 409.357086,201.112976 410.173676,202.133743 
	C411.560638,203.867493 412.695679,207.524734 411.766022,209.054779 
	C409.338470,213.050247 405.784119,216.376144 402.569244,219.867920 
	C401.731934,220.777359 400.492340,221.316391 399.207947,222.121994 
z"/>
<path fill="#FDFDFB" opacity="1.000000" stroke="none" 
	d="
M382.089142,266.436279 
	C383.112366,268.214325 383.977356,270.466095 385.045715,272.616791 
	C385.778290,274.091522 386.793701,275.425720 387.682678,276.822723 
	C388.455444,275.391602 389.546600,274.040558 389.931061,272.511810 
	C390.618927,269.776398 390.881134,266.933929 391.722656,264.045166 
	C394.254913,269.559875 392.986908,274.969299 390.841309,280.182800 
	C390.454224,281.123383 388.351624,282.008636 387.228790,281.817383 
	C386.045929,281.615845 384.427094,280.253967 384.151123,279.118835 
	C383.173828,275.099609 382.689056,270.960541 382.089142,266.436279 
z"/>
<path fill="#FDFDFB" opacity="1.000000" stroke="none" 
	d="
M382.235413,218.846191 
	C381.251373,218.692642 379.715607,218.590164 379.005432,217.771500 
	C377.084625,215.557343 375.666321,212.910629 373.772400,210.668945 
	C370.398895,206.676041 365.412201,207.186218 360.909119,206.593796 
	C358.328918,206.254333 355.668762,206.522675 352.997986,206.193359 
	C359.258759,202.200836 365.832397,204.930328 372.279541,205.211777 
	C373.214172,205.252579 374.236755,206.789322 374.947021,207.820862 
	C377.383331,211.359207 379.698730,214.980789 382.235413,218.846191 
z"/>
<path fill="#FDFDFB" opacity="1.000000" stroke="none" 
	d="
M121.934120,264.460236 
	C122.767258,263.711884 123.661270,263.379303 124.591652,263.033203 
	C124.703835,263.231750 124.890800,263.461578 124.973244,263.724243 
	C125.769516,266.261230 125.975624,270.529877 127.440971,271.015930 
	C131.581360,272.389343 133.279480,267.940704 135.899857,265.202271 
	C135.898788,266.898102 136.429123,269.366302 135.450272,270.814087 
	C133.823914,273.219513 131.434479,275.308838 128.937790,276.825806 
	C127.964142,277.417419 124.743271,276.488953 124.418320,275.582001 
	C123.193268,272.162842 122.738304,268.467773 121.934120,264.460236 
z"/>
<path fill="#FDFDFB" opacity="1.000000" stroke="none" 
	d="
M358.427002,235.065796 
	C359.119171,234.032623 360.255157,232.992508 361.248199,231.830231 
	C361.833038,231.145767 362.717499,230.099686 362.531006,229.514740 
	C362.231689,228.576019 361.160339,227.216034 360.408020,227.211395 
	C357.920685,227.196014 355.362457,227.448700 352.956390,228.076965 
	C349.227875,229.050552 345.607208,230.434464 341.916901,231.566284 
	C341.750641,231.617264 341.348358,230.898697 341.005371,230.207809 
	C346.163513,228.185898 351.300049,226.184753 356.614288,224.946106 
	C358.956757,224.400116 361.843506,224.960938 364.117218,225.902756 
	C365.146240,226.328995 366.190704,229.823441 365.661652,230.349045 
	C363.735901,232.262131 361.148590,233.509277 358.427002,235.065796 
z"/>
<path fill="#FDFDFB" opacity="1.000000" stroke="none" 
	d="
M93.614670,215.041504 
	C94.053352,216.123184 94.481567,217.448166 94.200432,218.599991 
	C92.188850,226.841339 91.810493,234.857056 96.546371,242.441315 
	C97.019203,243.198517 96.850594,244.356262 96.966232,245.730835 
	C89.459145,236.569077 87.312805,226.368896 93.614670,215.041504 
z"/>
<path fill="#FDFDFB" opacity="1.000000" stroke="none" 
	d="
M216.080994,264.400024 
	C218.239014,266.762726 220.324905,269.520233 222.284683,272.111023 
	C223.950104,269.039612 225.548477,266.091797 227.494354,263.074707 
	C226.920822,266.831726 226.332550,270.781067 224.976974,274.446686 
	C223.823578,277.565582 220.880051,277.709045 219.416748,274.737671 
	C217.881424,271.620056 217.112671,268.124969 216.080994,264.400024 
z"/>
<path fill="#FEFEFD" opacity="1.000000" stroke="none" 
	d="
M260.083313,231.441711 
	C265.109772,230.912964 261.708191,235.523621 263.600098,237.168594 
	C264.861145,234.798981 266.110809,232.450790 267.745117,230.073975 
	C267.751740,232.902695 267.528412,235.793365 266.923431,238.601837 
	C266.662445,239.813461 265.630341,241.761703 264.916107,241.776199 
	C263.618378,241.802505 261.463348,240.899460 261.147278,239.910767 
	C260.335602,237.371826 260.335480,234.573410 260.083313,231.441711 
z"/>
<path fill="#FDFDFB" opacity="1.000000" stroke="none" 
	d="
M325.163452,271.347351 
	C327.392487,271.712555 329.630005,272.419861 333.030792,273.494904 
	C333.567719,270.087128 334.158783,266.335510 334.899170,262.233704 
	C339.230591,264.398193 337.135925,268.473022 336.632904,271.414825 
	C335.593811,277.491943 331.827820,278.205170 327.281921,273.797729 
	C326.568176,273.105743 325.874756,272.392761 325.163452,271.347351 
z"/>
<path fill="#FDFDFB" opacity="1.000000" stroke="none" 
	d="
M390.918549,252.761414 
	C390.132477,252.510223 388.951660,252.008545 388.775787,251.268143 
	C387.213715,244.692215 385.678558,238.062378 388.474548,231.433701 
	C388.729950,230.828217 389.731049,230.537262 390.749573,230.083557 
	C387.925079,237.493912 388.665985,244.942688 390.918549,252.761414 
z"/>
<path fill="#FDFDFB" opacity="1.000000" stroke="none" 
	d="
M282.454895,269.834106 
	C283.502228,269.658203 284.776367,269.735901 286.047943,269.843964 
	C289.407501,270.129517 291.088715,267.848358 290.155975,264.605072 
	C289.849854,263.540588 290.313110,262.254852 290.773804,261.012695 
	C291.594360,263.300201 292.850647,265.819092 292.377869,267.955292 
	C291.303162,272.811157 286.925446,273.598389 282.454895,269.834106 
z"/>
<path fill="#FDFDFB" opacity="1.000000" stroke="none" 
	d="
M302.055176,216.560623 
	C297.783447,215.901337 293.463165,214.863754 289.073914,213.493118 
	C291.210510,212.702988 293.397217,212.068527 295.626251,211.830887 
	C298.869934,211.485062 301.658356,212.131012 302.055176,216.560623 
z"/>
<path fill="#FDFDFB" opacity="1.000000" stroke="none" 
	d="
M310.819641,220.636810 
	C308.071106,219.462418 303.790833,221.964279 302.054321,217.297882 
	C304.974030,218.023605 307.887573,219.150803 310.819641,220.636810 
z"/>
<path fill="#F8F7F4" opacity="1.000000" stroke="none" 
	d="
M100.661423,207.158600 
	C101.234322,211.012161 100.648270,214.215012 95.265419,213.962646 
	C96.683235,211.682724 98.503090,209.416550 100.661423,207.158600 
z"/>
<path fill="#FDFDFB" opacity="1.000000" stroke="none" 
	d="
M391.381592,229.980209 
	C390.586670,225.715866 392.782288,223.636414 397.349457,223.467621 
	C395.715729,225.720032 393.704590,227.785126 391.381592,229.980209 
z"/>
<path fill="#FDFDFB" opacity="1.000000" stroke="none" 
	d="
M335.908600,255.551636 
	C333.182098,253.919876 331.132172,251.792923 335.464539,249.016022 
	C335.884979,251.043900 335.934296,253.082153 335.908600,255.551636 
z"/>
<path fill="#FDFDFB" opacity="1.000000" stroke="none" 
	d="
M350.620605,206.085876 
	C350.363342,210.265717 347.893707,209.850082 345.012146,208.219513 
	C346.718292,207.255585 348.482483,206.635483 350.620605,206.085876 
z"/>
<path fill="#FDFDFB" opacity="1.000000" stroke="none" 
	d="
M111.968506,209.611572 
	C110.077385,208.926483 108.051201,207.919189 106.015152,206.541077 
	C107.948013,207.209946 109.890732,208.249664 111.968506,209.611572 
z"/>
<path fill="#FDFDFB" opacity="1.000000" stroke="none" 
	d="
M391.908264,260.630249 
	C389.511597,259.896545 388.123138,258.493164 390.559204,255.821640 
	C391.275055,257.210083 391.627289,258.738098 391.908264,260.630249 
z"/>
<path fill="#FDFDFB" opacity="1.000000" stroke="none" 
	d="
M285.617676,213.083374 
	C284.916718,215.308014 283.692444,217.030884 281.067017,214.483902 
	C282.416931,213.775528 283.828461,213.392822 285.617676,213.083374 
z"/>
<path fill="#FDFDFB" opacity="1.000000" stroke="none" 
	d="
M385.664032,220.939941 
	C385.134430,221.540344 384.308563,222.195618 383.482666,222.850891 
	C383.135895,221.992172 382.789124,221.133438 382.658020,219.925751 
	C383.705048,220.049454 384.536377,220.522125 385.664032,220.939941 
z"/>
<path fill="#FDFDFB" opacity="1.000000" stroke="none" 
	d="
M281.089691,265.317078 
	C281.695404,266.029907 282.226105,267.055084 282.419250,268.196014 
	C281.726013,267.417633 281.370361,266.523529 281.089691,265.317078 
z"/>
<path fill="#FDFDFB" opacity="1.000000" stroke="none" 
	d="
M119.124451,268.235565 
	C119.053162,267.645264 119.219246,266.898376 119.747192,266.107239 
	C119.859970,266.735016 119.610893,267.406982 119.124451,268.235565 
z"/>
<path fill="#FDFDFB" opacity="1.000000" stroke="none" 
	d="
M335.346405,259.004333 
	C335.163544,258.562042 335.280151,257.991852 335.618347,257.225067 
	C335.775208,257.644470 335.710541,258.260406 335.346405,259.004333 
z"/>
<path fill="#FDFDFB" opacity="1.000000" stroke="none" 
	d="
M342.715454,208.109558 
	C342.847839,208.452576 342.628754,208.672546 342.103699,208.887344 
	C342.067932,208.664749 342.256714,208.366211 342.715454,208.109558 
z"/>
<path fill="#FDFDFB" opacity="1.000000" stroke="none" 
	d="
M260.314148,265.025146 
	C260.107117,264.793365 260.238617,264.517883 260.647247,264.153503 
	C260.748749,264.329590 260.658203,264.635223 260.314148,265.025146 
z"/>
<path fill="#FDFDFB" opacity="1.000000" stroke="none" 
	d="
M311.886719,222.716415 
	C311.544312,222.844620 311.325348,222.624023 311.112915,222.098511 
	C311.336243,222.064438 311.633148,222.255783 311.886719,222.716415 
z"/>
<path fill="#FDFDFB" opacity="1.000000" stroke="none" 
	d="
M120.315193,266.026611 
	C120.108551,265.793274 120.241356,265.516327 120.653160,265.150909 
	C120.754517,265.328430 120.662010,265.635315 120.315193,266.026611 
z"/>
<path fill="#FDFDFB" opacity="1.000000" stroke="none" 
	d="
M113.037720,210.701111 
	C112.842720,210.759888 112.554634,210.564651 112.159973,210.125946 
	C112.350487,210.070694 112.647552,210.258896 113.037720,210.701111 
z"/>
<path fill="#FDFDFB" opacity="1.000000" stroke="none" 
	d="
M116.890182,214.715546 
	C116.545074,214.844238 116.325363,214.620956 116.116287,214.087845 
	C116.339882,214.055130 116.636108,214.250320 116.890182,214.715546 
z"/>
<path fill="#000000" opacity="1.000000" stroke="none" 
	d="
M193.846069,230.005371 
	C193.946793,228.526535 194.047501,227.047699 194.165634,225.313293 
	C197.782486,224.179825 199.618164,226.463730 200.977066,229.106689 
	C205.911301,238.703384 204.354233,248.209137 199.798981,257.341980 
	C197.701309,261.547607 187.128586,264.018097 182.765564,261.929626 
	C173.813858,257.644653 168.240204,244.541595 173.156403,237.269852 
	C176.150986,232.840454 181.094711,229.728775 185.710144,226.416489 
	C186.505356,230.663849 186.451340,234.574997 187.139740,238.350769 
	C187.444153,240.020325 189.252853,241.415604 190.378632,242.935394 
	C191.252594,241.481796 192.556366,240.123871 192.905930,238.553543 
	C193.525040,235.772202 193.564224,232.861786 193.846069,230.005371 
z"/>
<path fill="#000000" opacity="1.000000" stroke="none" 
	d="
M144.757828,228.955566 
	C145.898849,229.647659 146.805481,230.159576 147.367920,230.924591 
	C150.755768,235.532379 149.993439,237.646652 144.394073,239.107025 
	C141.804260,239.782471 139.163651,240.267441 136.534943,240.781815 
	C136.308563,240.826111 135.795837,240.476242 135.757278,240.251038 
	C135.142227,236.659210 134.298538,233.062973 134.233475,229.454651 
	C134.219269,228.665314 137.017227,227.191208 138.537689,227.167664 
	C140.470566,227.137711 142.421341,228.264374 144.757828,228.955566 
z"/>
<path fill="#FEFEFD" opacity="1.000000" stroke="none" 
	d="
M193.455429,230.018951 
	C193.564224,232.861786 193.525040,235.772202 192.905930,238.553543 
	C192.556366,240.123871 191.252594,241.481796 190.378632,242.935394 
	C189.252853,241.415604 187.444153,240.020325 187.139740,238.350769 
	C186.451340,234.574997 186.505356,230.663849 186.066116,226.426086 
	C186.915451,227.095291 188.598297,228.009232 188.857880,229.226669 
	C189.341446,231.494522 188.996674,233.938995 189.771271,236.326019 
	C190.869110,234.228195 191.966949,232.130371 193.455429,230.018951 
z"/>
<path fill="#000000" opacity="1.000000" stroke="none" 
	d="
M228.498993,231.990417 
	C221.688690,231.951340 226.535416,227.449493 225.647629,224.464233 
	C228.513290,225.192154 231.378967,225.920074 234.244629,226.647995 
	C234.291901,227.264130 234.339172,227.880280 234.386444,228.496414 
	C232.564545,229.658752 230.742630,230.821091 228.498993,231.990417 
z"/>
<path fill="#000000" opacity="1.000000" stroke="none" 
	d="
M109.985687,255.012878 
	C114.017494,258.143005 111.540215,260.042908 108.429489,262.876892 
	C106.323662,259.272980 104.470100,256.100769 101.920792,251.737854 
	C105.388802,253.199448 107.492043,254.085861 109.985687,255.012878 
z"/>
<path fill="#000000" opacity="1.000000" stroke="none" 
	d="
M104.991531,231.839020 
	C104.487793,228.713852 104.023293,225.968292 103.558784,223.222717 
	C104.085274,223.112228 104.611763,223.001740 105.138252,222.891235 
	C108.793015,226.221985 109.147491,230.715820 108.906410,236.458084 
	C107.290474,234.690445 106.160622,233.454529 104.991531,231.839020 
z"/>
<path fill="#FDFDFB" opacity="1.000000" stroke="none" 
	d="
M98.999390,251.000427 
	C99.120300,251.141373 99.241814,251.281921 99.363327,251.422470 
	C99.278412,251.373138 99.193497,251.323822 99.054733,251.136642 
	C99.000877,250.998779 99.000000,251.000000 98.999390,251.000427 
z"/>
<path fill="#FDFDFB" opacity="1.000000" stroke="none" 
	d="
M300.044434,220.395340 
	C300.285492,220.790421 300.283783,221.183487 300.253754,221.574387 
	C300.252899,221.585190 299.948242,221.572662 299.785278,221.571014 
	C299.789398,221.178360 299.793549,220.785690 300.044434,220.395340 
z"/>
</svg>