<?xml version="1.0" standalone="no"?>
<!DOCTYPE svg PUBLIC "-//W3C//DTD SVG 20010904//EN"
 "http://www.w3.org/TR/2001/REC-SVG-20010904/DTD/svg10.dtd">
<svg version="1.0" xmlns="http://www.w3.org/2000/svg"
 width="500.000000pt" height="500.000000pt" viewBox="0 0 500.000000 500.000000"
 preserveAspectRatio="xMidYMid meet">

<g transform="translate(0.000000,500.000000) scale(0.100000,-0.100000)"
fill="#000000" stroke="none">
<path d="M0 2500 l0 -2500 2500 0 2500 0 0 2500 0 2500 -2500 0 -2500 0 0
-2500z m2994 972 c37 -17 73 -29 79 -25 5 3 7 1 4 -4 -4 -6 -1 -13 7 -16 17
-7 42 -127 27 -136 -5 -4 -59 -17 -120 -30 l-111 -24 -67 26 c-91 35 -112 42
-94 29 9 -7 -6 -13 -55 -21 -38 -7 -80 -15 -94 -18 -24 -5 -24 -4 9 31 19 20
42 36 50 36 14 0 15 12 11 75 l-5 75 45 20 c38 17 61 20 145 17 88 -2 108 -6
169 -35z m-380 -48 c12 -87 12 -86 -94 -184 l-101 -93 -97 -23 c-53 -13 -100
-24 -103 -24 -4 0 -10 16 -13 36 -6 29 -2 44 24 84 73 113 258 249 341 250 36
0 36 -1 43 -46z m611 -259 l98 -105 -28 -133 c-16 -72 -29 -134 -31 -136 -2
-2 -52 -14 -111 -27 l-108 -23 -104 103 -103 103 24 134 24 133 119 27 c66 15
121 28 122 28 0 1 45 -46 98 -104z m-1051 -76 c-23 -25 -27 -19 -13 21 10 27
13 30 21 16 7 -13 5 -23 -8 -37z m304 -88 l60 -103 -45 -133 c-50 -150 -36
-138 -173 -150 l-65 -6 -64 107 -64 107 37 116 c21 64 42 121 47 126 12 13
192 54 200 46 4 -3 34 -53 67 -110z m-348 84 c0 -8 -4 -15 -8 -15 -5 0 -150
-20 -323 -45 -172 -25 -317 -44 -322 -42 -10 3 595 115 631 116 13 1 22 -5 22
-14z m1299 -47 c37 -115 37 -264 1 -382 -20 -64 -22 -66 -54 -66 -32 0 -33 1
-61 89 l-28 89 27 139 c28 143 39 163 82 163 16 0 25 -9 33 -32z m-1351 -20
c2 -11 -6 -18 -25 -22 -50 -10 -794 -116 -812 -115 -9 0 171 36 399 79 228 43
420 77 425 76 6 -2 11 -10 13 -18z m20 -33 c-8 -8 -258 -47 -272 -42 -6 2 43
13 109 24 126 22 172 27 163 18z m-4 -35 c-11 -11 -588 -103 -613 -98 -16 3
550 105 594 107 20 1 26 -2 19 -9z m-291 -17 c-7 -2 -19 -2 -25 0 -7 3 -2 5
12 5 14 0 19 -2 13 -5z m1125 -106 l101 -103 -45 -120 c-25 -65 -48 -122 -52
-126 -4 -4 -70 -20 -148 -36 l-141 -29 -79 90 c-43 50 -82 96 -86 102 -6 10
73 269 86 282 5 5 204 41 237 42 20 1 48 -22 127 -102z m-323 83 c-22 -5 -44
-4 -49 1 -6 5 10 9 40 8 l49 -1 -40 -8z m-515 -35 c0 -8 -10 -17 -22 -20 -49
-11 -650 -96 -654 -93 -3 4 626 124 664 127 6 0 12 -6 12 -14z m-877 -2 c-7
-2 -19 -2 -25 0 -7 3 -2 5 12 5 14 0 19 -2 13 -5z m507 -11 c0 -8 -488 -87
-495 -80 -4 3 438 84 478 87 9 0 17 -3 17 -7z m-267 -19 c-7 -2 -21 -2 -30 0
-10 3 -4 5 12 5 17 0 24 -2 18 -5z m455 -38 c-7 -8 -259 -47 -265 -42 -2 3 40
12 94 22 54 9 114 20 133 24 35 8 48 6 38 -4z m182 6 c0 -5 -12 -12 -27 -15
-70 -15 -616 -97 -624 -94 -8 3 595 113 639 117 6 0 12 -3 12 -8z m98 -133
c75 -122 141 -283 124 -300 -27 -27 -157 196 -181 312 -21 95 -21 100 -17 100
3 0 36 -51 74 -112z m-985 95 c-7 -2 -21 -2 -30 0 -10 3 -4 5 12 5 17 0 24 -2
18 -5z m-60 -10 c-7 -2 -21 -2 -30 0 -10 3 -4 5 12 5 17 0 24 -2 18 -5z m954
-10 c2 -6 -9 -14 -24 -17 -64 -13 -828 -126 -836 -123 -10 3 833 155 847 153
6 -1 11 -7 13 -13z m-1014 0 c-7 -2 -19 -2 -25 0 -7 3 -2 5 12 5 14 0 19 -2
13 -5z m330 -60 c-7 -2 -21 -2 -30 0 -10 3 -4 5 12 5 17 0 24 -2 18 -5z m697
-8 c0 -8 -4 -15 -9 -15 -5 0 -145 -20 -312 -45 -167 -25 -310 -44 -318 -43
-15 3 577 115 617 117 13 1 22 -5 22 -14z m-415 -34 c-11 -9 -151 -32 -188
-30 -12 1 19 9 68 19 105 21 133 23 120 11z m425 -11 c0 -5 -2 -10 -4 -10 -2
0 -120 -18 -261 -40 -142 -23 -262 -39 -267 -38 -9 3 479 94 520 97 6 1 12 -3
12 -9z m-647 -27 c-7 -2 -19 -2 -25 0 -7 3 -2 5 12 5 14 0 19 -2 13 -5z m-266
-9 c-3 -3 -12 -4 -19 -1 -8 3 -5 6 6 6 11 1 17 -2 13 -5z m236 -31 c-7 -2 -21
-2 -30 0 -10 3 -4 5 12 5 17 0 24 -2 18 -5z m705 -13 c2 -12 -64 -25 -368 -69
-204 -29 -373 -51 -375 -49 -5 5 704 136 725 134 8 -1 16 -8 18 -16z m1237 0
c8 -13 -36 -87 -85 -143 -44 -49 -47 -57 -25 -57 8 0 19 -9 25 -20 9 -16 4
-44 -23 -133 -31 -101 -33 -119 -27 -182 11 -95 -9 -125 -79 -125 -49 0 -67
27 -75 109 -8 86 -56 194 -81 185 -14 -6 -14 -8 0 -18 21 -15 31 -87 16 -113
-6 -12 -25 -23 -44 -27 l-33 -6 4 -63 c5 -76 -5 -88 -81 -93 -28 -2 -73 -6
-99 -10 -40 -6 -48 -4 -59 14 -13 20 -13 20 -31 -3 -20 -25 -81 -38 -111 -23
-10 5 -22 19 -27 31 l-9 22 0 -22 c-1 -32 -41 -54 -98 -53 -26 0 -70 -3 -96
-6 -29 -4 -53 -2 -59 4 -8 8 -17 6 -32 -3 -12 -8 -46 -17 -76 -20 -76 -8 -120
14 -138 72 -13 39 -16 42 -40 37 -42 -10 -44 -14 -37 -53 9 -54 -16 -81 -78
-83 -26 -1 -50 1 -53 5 -3 3 -21 -1 -39 -9 -19 -8 -59 -14 -90 -14 -46 0 -60
4 -87 29 -31 27 -33 34 -34 94 0 35 -4 68 -7 73 -3 6 -9 48 -13 95 -6 85 -6
86 22 118 23 25 41 34 83 40 30 5 68 5 85 0 21 -6 34 -5 45 5 24 21 170 30
200 12 22 -12 28 -12 54 8 23 17 44 21 110 22 45 1 89 5 99 9 9 3 47 10 85 13
l68 7 -49 35 c-67 49 -35 51 54 5 64 -34 74 -37 124 -31 52 7 56 10 81 52 14
24 27 44 29 44 1 0 66 13 144 30 l142 30 84 -50 c46 -27 94 -62 105 -76 14
-18 21 -22 21 -11 0 8 -5 17 -12 19 -6 2 37 57 96 121 101 109 135 133 151
107z m-1212 -54 c4 -10 -3 -16 -21 -20 -61 -13 -835 -127 -838 -123 -2 1 187
37 419 79 232 41 425 76 428 77 4 0 9 -5 12 -13z m-723 -25 c0 -8 -134 -32
-168 -30 -13 1 107 29 161 38 4 0 7 -3 7 -8z m-197 -38 c-7 -2 -21 -2 -30 0
-10 3 -4 5 12 5 17 0 24 -2 18 -5z m847 -3 c0 -5 -10 -12 -22 -15 -54 -12
-624 -95 -638 -93 -15 3 595 115 638 117 12 1 22 -3 22 -9z m-717 -7 c-7 -2
-19 -2 -25 0 -7 3 -2 5 12 5 14 0 19 -2 13 -5z m837 -12 c-15 -9 -233 -42
-260 -40 -20 2 217 47 250 48 19 0 21 -2 10 -8z m50 -46 c7 -8 10 -15 7 -15
-3 0 -144 -20 -312 -45 -169 -25 -312 -44 -317 -43 -8 3 559 114 598 117 6 1
17 -6 24 -14z m-857 -52 c-7 -2 -21 -2 -30 0 -10 3 -4 5 12 5 17 0 24 -2 18
-5z"/>
<path d="M3208 2308 c-8 -7 -21 -35 -28 -63 -7 -27 -15 -54 -18 -58 -2 -5 -19
17 -37 50 -25 45 -38 59 -58 61 -16 2 -27 -2 -27 -9 0 -6 22 -53 49 -103 41
-76 50 -103 56 -164 7 -72 8 -73 34 -70 l26 3 -3 81 c-4 74 15 166 55 272 3 7
-3 12 -14 12 -11 0 -26 -6 -35 -12z"/>
<path d="M2870 2281 c-52 -7 -49 13 -30 -191 15 -169 15 -170 47 -170 l26 0
-7 80 -6 80 45 0 c44 0 45 1 45 31 0 30 0 31 -47 27 l-48 -3 -3 48 -3 47 40 0
c55 0 71 8 71 36 0 22 -4 24 -42 22 -24 0 -63 -4 -88 -7z"/>
<path d="M2720 2243 c0 -15 7 -89 15 -163 8 -74 15 -143 15 -152 0 -12 8 -18
24 -18 14 0 27 4 30 8 2 4 -3 84 -12 177 l-17 170 -27 3 c-25 3 -28 0 -28 -25z"/>
<path d="M2600 2253 c-89 -9 -101 -13 -98 -36 2 -16 11 -23 34 -25 l30 -3 15
-147 c14 -151 21 -167 57 -143 12 7 12 29 3 122 -6 63 -14 129 -17 147 -5 30
-3 32 26 32 27 0 30 3 30 30 0 32 2 32 -80 23z"/>
<path d="M2301 2223 c-22 -4 -23 -8 -18 -51 4 -26 12 -104 18 -174 l12 -128
30 0 30 0 -7 60 c-6 55 -5 60 12 60 14 0 24 -14 37 -55 17 -49 22 -55 47 -55
33 0 34 4 8 70 -18 46 -19 53 -5 74 13 20 14 37 6 100 -5 42 -15 83 -21 91
-12 15 -91 19 -149 8z m113 -104 c8 -60 4 -69 -35 -69 -27 0 -29 3 -29 38 0
20 -3 47 -6 59 -5 17 -1 22 18 25 38 6 45 -1 52 -53z"/>
<path d="M2093 2200 c-33 -13 -36 -42 -20 -190 12 -106 18 -136 33 -147 39
-28 140 -7 150 31 8 34 -21 283 -36 301 -14 17 -90 20 -127 5z m86 -57 c5 -10
12 -66 16 -125 l7 -108 -30 0 c-34 0 -36 6 -48 149 -5 66 -4 85 7 92 22 13 37
11 48 -8z"/>
<path d="M1863 2183 c-26 -3 -33 -9 -33 -26 0 -30 31 -331 35 -335 1 -2 14 0
29 4 25 6 25 8 19 65 -6 58 -6 59 20 59 40 0 75 17 82 39 3 11 3 53 -1 92 -10
106 -28 117 -151 102z m91 -75 c3 -13 6 -40 6 -60 0 -35 -2 -38 -29 -38 -26 0
-29 3 -35 46 -9 72 -9 74 23 74 21 0 30 -6 35 -22z"/>
<path d="M1661 2160 c-43 -10 -51 -24 -50 -85 2 -88 8 -98 72 -113 53 -13 57
-16 63 -49 11 -56 -39 -76 -57 -23 -8 22 -17 30 -35 30 -21 0 -24 -4 -24 -39
0 -55 20 -71 86 -71 79 0 97 21 89 103 -4 34 -8 67 -10 73 -2 6 -31 17 -65 24
l-61 13 3 41 c3 36 6 41 28 41 20 0 26 -6 28 -27 3 -29 24 -36 50 -19 19 12 5
78 -21 96 -23 16 -44 17 -96 5z"/>
<path d="M2681 2074 c0 -11 3 -14 6 -6 3 7 2 16 -1 19 -3 4 -6 -2 -5 -13z"/>
<path d="M2517 2013 c-4 -19 -1 -48 8 -70 l14 -38 -1 45 c0 25 -3 56 -7 70 -7
25 -7 24 -14 -7z"/>
<path d="M2691 1974 c0 -11 3 -14 6 -6 3 7 2 16 -1 19 -3 4 -6 -2 -5 -13z"/>
</g>
</svg>
