<?xml version="1.0" standalone="no"?>
<!DOCTYPE svg PUBLIC "-//W3C//DTD SVG 20010904//EN"
 "http://www.w3.org/TR/2001/REC-SVG-20010904/DTD/svg10.dtd">
<svg version="1.0" xmlns="http://www.w3.org/2000/svg"
 width="500.000000pt" height="500.000000pt" viewBox="0 0 500.000000 500.000000"
 preserveAspectRatio="xMidYMid meet">

<g transform="translate(0.000000,500.000000) scale(0.100000,-0.100000)"
fill="#000000" stroke="none">
<path d="M2472 3523 c2 -22 8 -28 28 -28 20 0 26 6 28 28 3 24 0 27 -28 27
-28 0 -31 -3 -28 -27z"/>
<path d="M2307 3494 c-13 -13 -7 -52 8 -58 27 -10 46 5 43 33 -3 26 -35 41
-51 25z"/>
<path d="M2637 3480 c-6 -22 18 -53 36 -47 18 6 31 33 24 51 -9 23 -53 21 -60
-4z"/>
<path d="M2470 3415 c-12 -31 -26 -58 -31 -61 -5 -3 -28 11 -51 30 -22 19 -44
33 -48 31 -4 -3 -10 -32 -14 -65 -4 -33 -9 -60 -11 -60 -3 0 -27 14 -55 31
-28 17 -53 29 -56 27 -2 -3 12 -44 33 -92 35 -83 38 -87 62 -82 111 25 185 30
283 18 57 -6 112 -14 123 -17 18 -5 25 5 57 82 20 48 34 90 32 92 -1 2 -26
-11 -55 -28 -28 -18 -53 -30 -56 -28 -2 3 -8 30 -12 61 -4 31 -10 59 -13 62
-4 3 -24 -11 -47 -31 -22 -20 -44 -34 -50 -31 -5 3 -19 31 -32 61 -12 30 -26
55 -30 55 -4 0 -17 -25 -29 -55z"/>
<path d="M2154 3405 c-10 -25 4 -45 31 -45 21 0 25 5 25 30 0 25 -4 30 -25 30
-14 0 -28 -7 -31 -15z"/>
<path d="M2786 3405 c-9 -24 4 -45 29 -45 24 0 42 30 30 50 -10 15 -52 12 -59
-5z"/>
<path d="M2355 3166 c-69 -13 -85 -21 -85 -42 0 -8 1 -14 3 -14 1 0 34 7 72
15 101 21 289 16 359 -11 12 -4 16 -1 16 14 0 23 -9 27 -100 42 -83 13 -188
11 -265 -4z"/>
<path d="M2049 3105 c-22 -12 -59 -68 -59 -89 0 -10 34 -6 58 8 25 13 62 63
62 84 0 16 -28 15 -61 -3z"/>
<path d="M2890 3114 c0 -21 35 -73 59 -87 29 -17 61 -23 61 -11 0 22 -37 77
-61 89 -29 15 -59 20 -59 9z"/>
<path d="M1936 3079 c-18 -26 -21 -76 -6 -99 16 -25 45 13 45 60 0 52 -17 69
-39 39z"/>
<path d="M3031 3078 c-12 -33 -4 -83 16 -100 34 -28 46 64 14 103 l-19 24 -11
-27z"/>
<path d="M3890 3014 c-63 -24 -206 -80 -316 -124 -111 -44 -205 -80 -208 -80
-3 0 -15 18 -26 41 -12 23 -23 39 -25 37 -2 -2 6 -35 17 -73 29 -96 32 -347 5
-445 -29 -102 -102 -243 -172 -330 -36 -44 -62 -80 -59 -80 3 0 18 8 32 19 17
11 53 20 99 24 106 9 223 66 223 109 0 5 -41 8 -91 8 l-90 0 20 28 c17 25 27
29 78 31 77 3 135 17 210 52 71 34 153 108 153 140 0 18 -4 20 -37 15 -95 -15
-296 -36 -300 -32 -3 3 -1 17 4 33 9 27 13 28 129 44 187 26 301 72 367 150
32 36 65 115 53 126 -4 4 -445 -101 -518 -123 -14 -4 -18 1 -18 24 0 32 -9 29
370 158 103 35 197 96 222 144 21 41 26 150 6 149 -7 0 -65 -20 -128 -45z"/>
<path d="M970 2988 c0 -76 20 -113 86 -161 47 -34 102 -57 367 -148 145 -50
147 -52 147 -81 0 -23 -4 -28 -17 -24 -58 18 -508 124 -512 120 -11 -11 24
-90 57 -126 74 -82 187 -128 362 -149 58 -6 110 -16 116 -21 7 -5 14 -20 17
-33 3 -18 0 -25 -12 -25 -20 0 -255 28 -293 35 -72 12 1 -90 102 -144 75 -40
136 -58 227 -67 60 -5 75 -10 87 -29 l15 -22 -85 -6 c-47 -2 -88 -8 -91 -11
-12 -11 39 -54 88 -76 27 -11 89 -26 137 -31 48 -6 91 -15 97 -20 5 -5 15 -9
22 -9 7 0 -14 32 -46 71 -71 84 -141 216 -171 319 -28 97 -38 285 -20 384 7
39 23 100 36 136 24 69 14 63 -34 -20 -14 -25 -27 -47 -28 -48 -1 -2 -76 26
-166 62 -178 71 -476 186 -483 186 -3 0 -5 -28 -5 -62z"/>
<path d="M2348 3001 c-206 -66 -338 -250 -338 -472 0 -189 103 -352 279 -441
61 -31 72 -33 190 -36 150 -4 189 5 285 68 80 53 110 83 155 155 167 265 31
633 -268 725 -83 26 -223 26 -303 1z m258 -26 c88 -20 114 -34 114 -61 0 -20
-5 -22 -77 -26 -63 -3 -84 0 -108 14 -16 10 -51 21 -77 24 -42 6 -48 10 -48
30 0 13 7 24 18 27 36 10 119 6 178 -8z m-208 -31 c2 -16 -7 -28 -31 -43 -19
-12 -45 -37 -58 -56 -13 -19 -31 -35 -40 -35 -9 0 -42 -13 -73 -28 -30 -16
-58 -27 -61 -24 -29 29 60 130 159 182 67 35 99 36 104 4z m389 -126 l63 -62
0 -66 c0 -36 -4 -70 -8 -76 -4 -6 -35 -14 -69 -17 l-61 -5 -77 70 c-65 61 -75
74 -71 97 3 14 8 45 11 68 7 46 12 48 105 52 42 1 48 -3 107 -61z m-483 -60
c11 -18 28 -43 39 -55 19 -22 19 -22 -7 -74 -14 -30 -26 -70 -26 -91 0 -22 -5
-40 -12 -42 -37 -11 -105 -34 -120 -40 -13 -6 -25 5 -54 48 l-37 56 17 68 c19
79 39 109 92 139 56 33 86 30 108 -9z m616 -51 c26 -58 41 -161 33 -225 -5
-46 -9 -53 -26 -50 -16 2 -23 15 -32 58 -6 30 -16 65 -23 77 -7 13 -11 54 -9
102 2 70 4 81 20 81 12 0 25 -15 37 -43z m-242 -197 c-33 -106 -35 -109 -90
-135 -87 -41 -111 -35 -197 45 l-74 69 7 47 c3 25 18 68 32 94 25 46 29 48
107 73 l82 25 77 -77 77 -76 -21 -65z m-561 -23 c25 -34 42 -70 47 -97 4 -24
16 -64 27 -89 18 -41 18 -46 3 -69 l-17 -25 -19 24 c-42 52 -68 100 -88 158
-23 68 -26 137 -7 144 6 3 12 6 13 6 1 1 19 -23 41 -52z m818 -89 c-29 -94
-144 -238 -191 -238 l-23 0 21 36 c11 19 26 51 33 70 17 49 114 153 143 154
20 0 22 -4 17 -22z m-256 -32 c12 -13 38 -32 57 -42 40 -22 40 -39 -3 -112
-18 -32 -37 -49 -71 -63 -96 -41 -155 -35 -210 24 l-24 25 22 65 22 65 58 12
c32 7 71 21 87 30 36 24 36 24 62 -4z m-408 -145 c24 -10 64 -22 89 -26 26 -4
58 -19 75 -34 17 -14 41 -33 54 -42 16 -10 22 -20 16 -28 -21 -36 -220 24
-294 89 -23 20 -23 21 -6 40 22 24 14 24 66 1z"/>
<path d="M1861 2992 c-16 -31 -13 -77 7 -102 l18 -23 13 31 c14 34 10 66 -12
96 -14 19 -15 19 -26 -2z"/>
<path d="M3105 2977 c-13 -31 -14 -45 -5 -73 14 -41 23 -43 38 -9 16 35 15 77
-2 101 -14 18 -15 17 -31 -19z"/>
<path d="M1990 2982 c-19 -11 -35 -23 -35 -28 0 -5 21 -10 46 -12 34 -2 52 2
70 17 27 22 25 29 -17 36 -19 4 -41 -1 -64 -13z"/>
<path d="M2928 2993 c-25 -6 -22 -18 7 -37 26 -17 100 -22 110 -6 13 22 -76
55 -117 43z"/>
<path d="M1923 2896 c-23 -20 -26 -27 -15 -37 17 -18 89 8 110 39 14 22 14 22
-26 22 -29 0 -49 -7 -69 -24z"/>
<path d="M2980 2905 c0 -32 100 -70 115 -44 13 20 -40 59 -81 59 -23 0 -34 -5
-34 -15z"/>
<path d="M1796 2874 c-7 -28 21 -98 39 -96 6 1 11 18 13 39 6 65 -38 114 -52
57z"/>
<path d="M3166 2878 c-17 -24 -22 -93 -7 -102 23 -15 59 64 46 103 -8 27 -20
27 -39 -1z"/>
<path d="M1920 2833 c-21 -8 -50 -34 -61 -55 -17 -31 52 -24 85 8 41 42 29 66
-24 47z"/>
<path d="M3030 2827 c0 -24 58 -67 91 -67 25 0 28 3 20 18 -16 29 -46 51 -79
58 -25 5 -32 3 -32 -9z"/>
<path d="M1754 2775 c-13 -32 35 -123 57 -110 15 10 10 58 -11 93 -21 35 -37
41 -46 17z"/>
<path d="M3200 2758 c-20 -34 -27 -83 -11 -92 17 -11 54 43 55 80 1 49 -18 54
-44 12z"/>
<path d="M1880 2735 c-27 -14 -58 -61 -47 -71 11 -11 56 5 76 27 45 48 27 75
-29 44z"/>
<path d="M3067 2730 c7 -26 59 -70 84 -70 36 0 15 51 -31 75 -41 21 -59 19
-53 -5z"/>
<path d="M1730 2645 c0 -28 8 -44 33 -68 l32 -32 3 33 c4 37 -17 75 -48 92
-18 10 -20 8 -20 -25z"/>
<path d="M3220 2640 c-14 -19 -20 -41 -18 -62 l3 -33 33 32 c22 22 32 41 32
62 0 40 -22 41 -50 1z"/>
<path d="M1875 2648 c-30 -18 -54 -51 -55 -75 0 -27 2 -27 39 -9 27 14 51 53
51 81 0 18 -8 18 -35 3z"/>
<path d="M3090 2644 c0 -26 31 -71 57 -83 32 -15 33 -14 33 12 0 26 -26 60
-57 76 -29 15 -33 14 -33 -5z"/>
<path d="M1867 2549 c-35 -20 -62 -99 -33 -99 26 0 57 35 63 73 6 38 0 44 -30
26z"/>
<path d="M3100 2540 c0 -33 26 -75 56 -88 l27 -13 -6 38 c-9 56 -77 111 -77
63z"/>
<path d="M1720 2529 c0 -22 60 -89 79 -89 27 0 -4 81 -38 100 -29 15 -41 12
-41 -11z"/>
<path d="M3234 2532 c-37 -29 -59 -92 -33 -92 6 0 26 15 45 34 52 52 42 102
-12 58z"/>
<path d="M1872 2448 c-37 -41 -42 -115 -7 -102 22 9 45 57 45 94 0 36 -9 38
-38 8z"/>
<path d="M3090 2436 c0 -34 40 -96 62 -96 19 0 1 81 -23 106 -30 32 -39 30
-39 -10z"/>
<path d="M1730 2414 c0 -23 55 -74 79 -74 30 0 26 26 -8 61 -32 32 -71 39 -71
13z"/>
<path d="M3224 2420 c-24 -9 -54 -47 -54 -67 0 -23 41 -14 71 16 46 46 37 73
-17 51z"/>
<path d="M1901 2356 c-17 -18 -24 -37 -24 -66 0 -48 7 -58 28 -40 22 18 38 81
28 108 l-9 23 -23 -25z"/>
<path d="M3067 2350 c-9 -36 20 -110 43 -110 18 0 21 60 5 95 -19 39 -40 46
-48 15z"/>
<path d="M3200 2309 c-33 -13 -70 -49 -70 -67 0 -25 62 -6 93 28 38 42 28 59
-23 39z"/>
<path d="M1760 2297 c0 -21 43 -56 78 -63 43 -9 43 15 1 50 -32 28 -79 35 -79
13z"/>
<path d="M1936 2262 c-19 -38 -20 -72 -3 -96 12 -17 14 -17 28 0 17 21 19 98
2 115 -9 9 -15 4 -27 -19z"/>
<path d="M3031 2261 c-28 -66 26 -140 92 -127 30 6 77 41 77 58 0 12 -58 10
-83 -4 -12 -6 -27 -18 -33 -26 -7 -10 -10 0 -10 42 1 38 -4 60 -15 71 -15 15
-17 14 -28 -14z"/>
<path d="M1802 2188 c7 -20 68 -58 94 -58 34 0 37 15 7 44 -19 19 -36 26 -65
26 -27 0 -38 -4 -36 -12z"/>
<path d="M1986 2184 c-15 -39 1 -114 23 -114 5 0 14 14 20 31 17 50 -25 131
-43 83z"/>
<path d="M2980 2181 c-14 -26 -13 -98 2 -107 16 -10 38 25 38 62 0 60 -20 82
-40 45z"/>
<path d="M2057 2124 c-12 -12 -8 -79 7 -99 8 -12 19 -16 31 -11 14 5 16 14 12
43 -6 38 -38 79 -50 67z"/>
<path d="M2922 2117 c-19 -22 -33 -69 -27 -88 16 -51 66 12 57 71 -5 32 -13
37 -30 17z"/>
<path d="M1893 2102 c-32 -5 -29 -29 7 -47 32 -16 68 -19 88 -7 27 18 -51 62
-95 54z"/>
<path d="M3059 2098 c-38 -14 -62 -40 -47 -50 31 -19 118 7 118 36 0 17 -40
25 -71 14z"/>
<path d="M2126 2055 c-10 -28 -7 -35 19 -35 30 0 32 11 6 34 -17 15 -19 15
-25 1z"/>
<path d="M2846 2051 c-22 -24 -20 -31 9 -31 18 0 25 5 25 19 0 28 -15 33 -34
12z"/>
<path d="M2200 2014 c-164 -25 -390 -94 -485 -147 -59 -33 -60 -70 -2 -124 27
-25 53 -63 67 -97 12 -31 26 -56 30 -56 5 0 17 -3 27 -7 16 -6 16 -5 5 10 -8
9 -11 21 -7 27 22 36 224 103 389 130 299 49 689 5 895 -99 48 -25 57 -37 39
-58 -11 -14 -10 -15 12 -8 30 9 36 18 52 68 7 22 30 57 55 80 93 89 70 122
-140 196 -216 76 -381 101 -648 100 -113 -1 -234 -7 -289 -15z m311 -34 c21
-12 27 -64 8 -75 -7 -5 -5 -15 6 -31 15 -23 14 -24 -4 -24 -11 0 -25 9 -31 20
-6 11 -15 20 -20 20 -6 0 -10 -9 -10 -20 0 -13 -7 -20 -20 -20 -18 0 -20 7
-20 70 l0 70 36 0 c19 0 44 -5 55 -10z m143 4 c49 -7 66 -34 21 -34 -23 0 -25
-3 -25 -48 0 -53 -5 -63 -25 -56 -10 4 -12 20 -8 60 5 50 4 54 -16 54 -12 0
-21 6 -21 15 0 17 8 18 74 9z m-295 -30 c12 -15 21 -34 21 -44 0 -10 -9 -29
-21 -44 -41 -52 -129 -21 -129 46 0 65 88 94 129 42z m416 -19 c-3 -19 -7 -51
-10 -70 -4 -22 -11 -35 -21 -35 -12 0 -14 11 -8 63 8 71 10 77 30 77 11 0 14
-8 9 -35z m131 15 c8 0 14 -7 14 -16 0 -12 -7 -15 -30 -12 -24 4 -30 1 -30
-14 0 -11 7 -18 20 -18 11 0 20 -7 20 -15 0 -9 -9 -15 -24 -15 -16 0 -27 -7
-31 -20 -3 -11 -13 -20 -22 -20 -12 0 -14 7 -9 33 4 17 9 49 13 70 6 37 7 39
36 33 16 -3 36 -6 43 -6z m-725 -24 c14 -31 -2 -63 -37 -72 -18 -5 -23 -11
-19 -25 5 -14 1 -19 -12 -19 -16 0 -21 12 -30 63 -6 34 -8 65 -6 70 2 4 24 7
49 7 37 0 46 -4 55 -24z m819 -26 c0 -28 15 -32 35 -10 18 20 45 27 45 12 0
-4 -16 -23 -34 -42 -19 -18 -36 -42 -38 -54 -2 -12 -9 -21 -16 -21 -10 0 -15
16 -16 50 -2 28 -6 63 -11 79 -7 26 -6 27 14 17 11 -7 21 -20 21 -31z m-981 6
c14 -17 -11 -30 -27 -14 -6 6 -15 7 -21 4 -19 -12 -12 -26 13 -26 13 0 34 -9
47 -19 20 -16 22 -23 13 -38 -15 -24 -61 -40 -80 -28 -22 14 -13 30 16 30 40
0 34 20 -7 25 -30 4 -39 10 -41 28 -2 13 2 30 8 38 16 18 64 18 79 0z"/>
<path d="M2450 1940 c0 -15 7 -20 25 -20 18 0 25 5 25 20 0 15 -7 20 -25 20
-18 0 -25 -5 -25 -20z"/>
<path d="M2272 1938 c-29 -29 -3 -72 40 -66 19 2 23 9 23 38 0 30 -4 35 -25
38 -14 2 -31 -3 -38 -10z"/>
<path d="M2117 1923 c-15 -14 -7 -43 12 -43 26 0 36 17 21 35 -14 16 -23 19
-33 8z"/>
<path d="M1961 2009 c-17 -7 -21 -13 -14 -20 7 -7 26 -6 58 2 39 10 45 14 29
20 -26 10 -44 10 -73 -2z"/>
<path d="M2966 2011 c-16 -6 -10 -10 28 -21 34 -9 50 -10 58 -2 8 8 4 14 -16
22 -31 11 -43 12 -70 1z"/>
<path d="M1620 1686 c-36 -24 -71 -50 -78 -59 -15 -18 -6 -22 73 -32 89 -12
85 -8 85 -91 0 -41 4 -74 8 -74 4 0 27 14 51 31 23 18 77 50 119 73 42 23 78
49 80 58 2 9 -4 28 -13 42 l-17 25 -44 -22 c-38 -18 -42 -23 -30 -35 10 -11
18 -11 34 -3 29 16 62 14 62 -4 0 -8 -10 -20 -22 -26 -23 -12 -23 -12 -4 10
22 25 10 27 -30 6 -35 -18 -75 -19 -97 -2 -9 6 -23 32 -32 57 -16 46 -50 90
-69 90 -6 0 -40 -20 -76 -44z"/>
<path d="M2215 1711 c-72 -44 -91 -102 -56 -173 26 -55 75 -88 127 -88 53 0
84 23 84 61 0 46 -17 69 -49 69 -34 0 -55 -22 -48 -50 3 -11 1 -18 -4 -14 -14
8 -11 48 5 69 32 44 137 13 159 -46 12 -30 30 -38 42 -18 12 18 -15 95 -47
133 -58 71 -151 96 -213 57z"/>
<path d="M2420 1722 c0 -4 11 -23 24 -43 14 -20 31 -58 40 -85 8 -27 15 -40
15 -29 1 22 41 107 67 143 l16 22 -81 0 c-44 0 -81 -3 -81 -8z"/>
<path d="M2634 1711 c-23 -10 -54 -35 -69 -54 -28 -38 -59 -123 -49 -138 10
-18 29 -9 42 20 7 16 25 37 39 46 35 23 98 24 119 3 20 -20 22 -65 3 -81 -8
-7 -11 -8 -6 -3 11 15 8 51 -5 64 -32 32 -88 -1 -88 -51 0 -41 32 -67 84 -67
145 0 202 202 73 261 -53 24 -91 24 -143 0z"/>
<path d="M3273 1708 c-12 -13 -31 -47 -43 -76 -30 -70 -55 -76 -160 -35 -10 4
-9 -1 5 -17 l20 -23 -22 12 c-34 17 -30 45 5 38 58 -12 65 -12 69 0 2 7 -14
21 -35 32 l-40 20 -17 -25 c-9 -14 -15 -33 -13 -42 2 -9 35 -34 73 -55 39 -21
93 -53 121 -72 28 -19 54 -35 57 -35 4 0 7 33 7 74 0 83 -4 79 85 91 28 3 58
9 68 11 17 5 17 7 2 25 -21 22 -137 99 -151 99 -6 0 -20 -10 -31 -22z"/>
<path d="M2436 1481 c-16 -18 -16 -20 6 -35 31 -22 81 -20 109 4 24 20 24 20
5 35 -29 22 -99 19 -120 -4z"/>
<path d="M2456 1385 c-4 -20 -16 -41 -26 -48 -11 -6 -20 -15 -20 -19 0 -13 45
-9 59 5 8 7 11 7 8 1 -4 -7 -2 -26 5 -44 10 -31 12 -32 25 -15 7 11 13 27 13
37 0 14 5 17 24 12 33 -8 57 6 28 17 -12 5 -24 20 -28 36 -11 50 -13 53 -48
53 -31 0 -34 -3 -40 -35z"/>
</g>
</svg>
